<svg width="293" height="48" viewBox="0 0 293 48" fill="none" xmlns="http://www.w3.org/2000/svg">
<path d="M56.245 3.55645L54.9534 11.2439H49.1409L42.8075 46.9731H33.5992L37.0575 27.2648H29.8492L29.37 30.0148C28.6305 34.1971 26.9742 37.4731 24.3909 39.8481C21.8075 42.2127 18.4794 43.3898 14.4117 43.3898C10.9794 43.3898 8.27108 42.546 6.2867 40.8481C4.31274 39.1398 3.32837 36.8221 3.32837 33.8898C3.32837 33.0304 3.40129 32.2335 3.55754 31.4939C4.2242 27.6606 5.9742 24.7439 8.80754 22.7439C11.6513 20.7439 15.0055 19.7439 18.87 19.7439H22.5784L23.3284 15.2856C23.4117 14.5929 23.4534 14.1085 23.4534 13.8273C23.4534 11.8689 22.6096 10.8898 20.9325 10.8898C19.9586 10.8898 19.12 11.2387 18.4117 11.9314C17.7034 12.6137 17.2502 13.5148 17.0575 14.6398C16.943 15.3064 16.9013 15.9314 16.9325 16.5148H7.7242V15.9939C7.7242 15.6502 7.76587 15.0773 7.8492 14.2856C8.43254 10.9679 9.94295 8.26478 12.3909 6.18145C14.8336 4.0877 17.995 3.03561 21.87 3.03561C25.3805 3.03561 27.9534 3.90541 29.5784 5.63978C31.2034 7.37936 32.0159 9.7752 32.0159 12.8273C32.0159 13.8846 31.8752 15.2752 31.5992 16.9939L31.1409 19.7439H38.4117L41.2242 3.55645H56.245ZM21.2242 27.2648H17.8284C16.1461 27.2648 14.7555 27.7231 13.6617 28.6398C12.5627 29.5564 12.0159 30.8221 12.0159 32.4314C12.0159 33.4471 12.3492 34.2335 13.0159 34.7856C13.6825 35.3273 14.5419 35.5981 15.5992 35.5981C16.9586 35.5981 18.068 35.1398 18.9325 34.2231C19.7919 33.296 20.3596 32.0512 20.6409 30.4939L21.2242 27.2648Z" fill="#FF7A08" fill-opacity="0.4"/>
<path d="M52.366 46.9731L58.6368 11.244H52.8868L54.241 3.55646H74.9493L73.5951 11.244H67.8451L61.5743 46.9731H52.366Z" fill="#FF7A08" fill-opacity="0.4"/>
<path d="M53.6523 0.963765L52.3607 8.65127H46.5482L40.2148 44.3804H31.0065L34.4648 24.6721H27.2565L26.7773 27.4221C26.0377 31.6044 24.3815 34.8804 21.7982 37.2554C19.2148 39.62 15.8867 40.7971 11.819 40.7971C8.3867 40.7971 5.67836 39.9534 3.69399 38.2554C1.72003 36.5471 0.735657 34.2294 0.735657 31.2971C0.735657 30.4377 0.808574 29.6408 0.964823 28.9013C1.63149 25.0679 3.38149 22.1513 6.21482 20.1513C9.05857 18.1513 12.4127 17.1513 16.2773 17.1513H19.9857L20.7357 12.6929C20.819 12.0002 20.8607 11.5158 20.8607 11.2346C20.8607 9.27627 20.0169 8.2971 18.3398 8.2971C17.3659 8.2971 16.5273 8.64606 15.819 9.33877C15.1107 10.0211 14.6575 10.9221 14.4648 12.0471C14.3502 12.7138 14.3086 13.3388 14.3398 13.9221H5.13149V13.4013C5.13149 13.0575 5.17316 12.4846 5.25649 11.6929C5.83982 8.37522 7.35024 5.6721 9.79816 3.58877C12.2409 1.49502 15.4023 0.442932 19.2773 0.442932C22.7877 0.442932 25.3607 1.31272 26.9857 3.0471C28.6107 4.78668 29.4232 7.18252 29.4232 10.2346C29.4232 11.2919 29.2825 12.6825 29.0065 14.4013L28.5482 17.1513H35.819L38.6315 0.963765H53.6523ZM18.6315 24.6721H15.2357C13.5534 24.6721 12.1627 25.1304 11.069 26.0471C9.97003 26.9638 9.42316 28.2294 9.42316 29.8388C9.42316 30.8544 9.75649 31.6408 10.4232 32.1929C11.0898 32.7346 11.9492 33.0054 13.0065 33.0054C14.3659 33.0054 15.4752 32.5471 16.3398 31.6304C17.1992 30.7034 17.7669 29.4586 18.0482 27.9013L18.6315 24.6721Z" fill="#FF7A08"/>
<path d="M49.7733 44.3804L56.0441 8.65125H50.2941L51.6483 0.963745H72.3566L71.0024 8.65125H65.2524L58.9816 44.3804H49.7733Z" fill="#FF7A08"/>
<path d="M178.283 5.78561L173.367 33.8273C172.575 38.1762 170.747 41.5252 167.888 43.8689C165.039 46.2179 161.544 47.3898 157.408 47.3898C153.643 47.3898 150.679 46.4523 148.513 44.5773C146.346 42.6919 145.263 39.9887 145.263 36.4731C145.263 35.2648 145.356 34.171 145.554 33.1814H155.533C155.408 33.8064 155.346 34.3794 155.346 34.8898C155.346 36.0564 155.638 36.9419 156.221 37.5356C156.815 38.1189 157.643 38.4106 158.7 38.4106C159.908 38.4106 160.908 38.0304 161.7 37.2648C162.502 36.5044 163.044 35.3585 163.325 33.8273L168.263 5.78561H178.283Z" fill="#138807" fill-opacity="0.4"/>
<path d="M193.412 5.78561L189.079 30.3689C188.923 31.3846 188.85 32.0877 188.85 32.4731C188.85 34.2804 189.355 35.6606 190.371 36.6189C191.381 37.5773 192.892 38.0564 194.892 38.0564C197.235 38.0564 199.152 37.3898 200.642 36.0564C202.126 34.7231 203.084 32.8273 203.517 30.3689L207.85 5.78561H217.892L213.537 30.3689C212.871 34.0929 211.548 37.2335 209.579 39.7856C207.605 42.3429 205.204 44.2544 202.371 45.5148C199.537 46.7648 196.454 47.3898 193.121 47.3898C188.813 47.3898 185.339 46.2804 182.704 44.0564C180.063 41.8221 178.746 38.5929 178.746 34.3689C178.746 33.1085 178.86 31.7752 179.1 30.3689L183.392 5.78561H193.412Z" fill="#138807" fill-opacity="0.4"/>
<path d="M238.928 5.78561C243.189 5.78561 246.433 6.75957 248.657 8.70228C250.892 10.6346 252.012 13.1398 252.012 16.2231C252.012 17.1294 251.933 17.9731 251.782 18.7648C251.308 21.5044 250.116 23.9471 248.199 26.0981C246.282 28.2387 243.72 29.7596 240.512 30.6606L247.157 46.9731H235.824L230.012 31.4314H227.616L224.866 46.9731H214.824L222.095 5.78561H238.928ZM241.512 19.1606C241.595 18.5356 241.637 18.1294 241.637 17.9314C241.637 16.6814 241.23 15.7179 240.428 15.0356C239.621 14.3429 238.439 13.9939 236.887 13.9939H230.657L228.845 24.3273H235.053C236.897 24.3273 238.355 23.8794 239.428 22.9731C240.512 22.0721 241.204 20.8012 241.512 19.1606Z" fill="#138807" fill-opacity="0.4"/>
<path d="M292.835 5.78561L273.773 33.3689L271.314 46.9731H261.273L263.752 33.3689L254.294 5.78561H265.689L270.606 22.9731L281.585 5.78561H292.835Z" fill="#138807" fill-opacity="0.4"/>
<path d="M175.691 3.19293L170.774 31.2346C169.982 35.5836 168.154 38.9325 165.295 41.2763C162.446 43.6252 158.951 44.7971 154.816 44.7971C151.05 44.7971 148.087 43.8596 145.92 41.9846C143.753 40.0992 142.67 37.3961 142.67 33.8804C142.67 32.6721 142.764 31.5784 142.962 30.5888H152.941C152.816 31.2138 152.753 31.7867 152.753 32.2971C152.753 33.4638 153.045 34.3492 153.628 34.9429C154.222 35.5263 155.05 35.8179 156.107 35.8179C157.316 35.8179 158.316 35.4377 159.107 34.6721C159.909 33.9117 160.451 32.7658 160.732 31.2346L165.67 3.19293H175.691Z" fill="#138808"/>
<path d="M190.82 3.19293L186.486 27.7763C186.33 28.7919 186.257 29.495 186.257 29.8804C186.257 31.6877 186.762 33.0679 187.778 34.0263C188.788 34.9846 190.299 35.4638 192.299 35.4638C194.643 35.4638 196.559 34.7971 198.049 33.4638C199.533 32.1304 200.492 30.2346 200.924 27.7763L205.257 3.19293H215.299L210.945 27.7763C210.278 31.5002 208.955 34.6408 206.986 37.1929C205.012 39.7502 202.611 41.6617 199.778 42.9221C196.945 44.1721 193.861 44.7971 190.528 44.7971C186.221 44.7971 182.747 43.6877 180.111 41.4638C177.471 39.2294 176.153 36.0002 176.153 31.7763C176.153 30.5158 176.268 29.1825 176.507 27.7763L180.799 3.19293H190.82Z" fill="#138808"/>
<path d="M236.335 3.19293C240.596 3.19293 243.841 4.16689 246.065 6.1096C248.299 8.04189 249.419 10.5471 249.419 13.6304C249.419 14.5367 249.341 15.3804 249.19 16.1721C248.716 18.9117 247.523 21.3544 245.606 23.5054C243.69 25.6461 241.127 27.1669 237.919 28.0679L244.565 44.3804H233.231L227.419 28.8388H225.023L222.273 44.3804H212.231L219.502 3.19293H236.335ZM238.919 16.5679C239.002 15.9429 239.044 15.5367 239.044 15.3388C239.044 14.0888 238.638 13.1252 237.835 12.4429C237.028 11.7502 235.846 11.4013 234.294 11.4013H228.065L226.252 21.7346H232.46C234.304 21.7346 235.763 21.2867 236.835 20.3804C237.919 19.4794 238.612 18.2086 238.919 16.5679Z" fill="#138808"/>
<path d="M290.242 3.19293L271.18 30.7763L268.722 44.3804H258.68L261.159 30.7763L251.701 3.19293H263.097L268.013 20.3804L278.992 3.19293H290.242Z" fill="#138808"/>
<path d="M106.667 11.244H101.688L101.167 14.3481C99.3597 24.3638 93.7608 29.369 84.3753 29.369H84.1462L83.1462 35.244C83.0316 35.7179 82.9795 36.171 82.9795 36.5981C82.9795 37.5304 83.2295 38.2752 83.7295 38.8273C84.2399 39.369 84.9847 39.6398 85.9587 39.6398C87.0524 39.6398 87.9691 39.2596 88.7087 38.494C89.4587 37.7335 89.9274 36.7231 90.1253 35.4731L90.417 33.8273H99.2295L99.1045 35.1815C98.4378 38.9731 96.9066 41.9731 94.5212 44.1815C92.1462 46.3898 89.0524 47.494 85.2503 47.494C81.6514 47.494 78.8441 46.5565 76.8337 44.6815C74.8181 42.8065 73.8128 40.3638 73.8128 37.3481C73.8128 36.421 73.8962 35.5565 74.0628 34.7648L76.292 21.9731H82.2087C85.2191 21.9731 87.4795 21.3377 88.9795 20.0565C90.4899 18.7648 91.4795 16.8637 91.9378 14.3481L92.4795 11.244H73.5212L74.8753 3.55646H108.021L106.667 11.244Z" fill="#000080" fill-opacity="0.4"/>
<path d="M145.39 11.244H139.577L133.369 46.9731H124.14L127.785 26.0356H120.515C117.817 26.0356 115.608 26.7752 113.89 28.244C112.166 29.7023 111.306 31.7596 111.306 34.4106C111.306 36.0669 111.837 37.3481 112.91 38.2648C113.994 39.1815 115.567 39.6398 117.64 39.6398H118.702L117.452 46.9106H115.827C113.311 46.9106 110.999 46.4835 108.89 45.619C106.775 44.7596 105.098 43.4419 103.848 41.6606C102.598 39.8846 101.973 37.7023 101.973 35.119C101.973 34.1919 102.046 33.2752 102.202 32.369C103.02 27.5513 105.186 23.9731 108.702 21.6398C112.228 19.296 116.478 18.119 121.452 18.119H129.202L130.369 11.244H101.848L103.202 3.55646H146.744L145.39 11.244Z" fill="#000080" fill-opacity="0.4"/>
<path d="M104.074 8.65125H99.0951L98.5743 11.7554C96.767 21.771 91.1681 26.7762 81.7826 26.7762H81.5535L80.5535 32.6512C80.4389 33.1252 80.3868 33.5783 80.3868 34.0054C80.3868 34.9377 80.6368 35.6825 81.1368 36.2346C81.6472 36.7762 82.392 37.0471 83.366 37.0471C84.4597 37.0471 85.3764 36.6669 86.116 35.9012C86.866 35.1408 87.3347 34.1304 87.5326 32.8804L87.8243 31.2346H96.6368L96.5118 32.5887C95.8451 36.3804 94.3139 39.3804 91.9285 41.5887C89.5535 43.7971 86.4597 44.9012 82.6576 44.9012C79.0587 44.9012 76.2514 43.9637 74.241 42.0887C72.2253 40.2137 71.2201 37.771 71.2201 34.7554C71.2201 33.8283 71.3035 32.9637 71.4701 32.1721L73.6993 19.3804H79.616C82.6264 19.3804 84.8868 18.745 86.3868 17.4637C87.8972 16.1721 88.8868 14.271 89.3451 11.7554L89.8868 8.65125H70.9285L72.2826 0.963745H105.428L104.074 8.65125Z" fill="#000080"/>
<path d="M142.797 8.65125H136.984L130.776 44.3804H121.547L125.193 23.4429H117.922C115.224 23.4429 113.016 24.1825 111.297 25.6512C109.573 27.1096 108.713 29.1669 108.713 31.8179C108.713 33.4742 109.245 34.7554 110.318 35.6721C111.401 36.5887 112.974 37.0471 115.047 37.0471H116.109L114.859 44.3179H113.234C110.719 44.3179 108.406 43.8908 106.297 43.0262C104.182 42.1669 102.505 40.8492 101.255 39.0679C100.005 37.2919 99.3801 35.1096 99.3801 32.5262C99.3801 31.5992 99.453 30.6825 99.6093 29.7762C100.427 24.9585 102.594 21.3804 106.109 19.0471C109.635 16.7033 113.885 15.5262 118.859 15.5262H126.609L127.776 8.65125H99.2551L100.609 0.963745H144.151L142.797 8.65125Z" fill="#000080"/>
</svg>
